<svg width="24" height="24" viewBox="0 0 24 24" fill="none" xmlns="http://www.w3.org/2000/svg">
<path d="M0 12C0 5.37258 5.37258 0 12 0V0C18.6274 0 24 5.37258 24 12V12C24 18.6274 18.6274 24 12 24V24C5.37258 24 0 18.6274 0 12V12Z" fill="white"/>
<path fill-rule="evenodd" clip-rule="evenodd" d="M12 23.25C18.2132 23.25 23.25 18.2132 23.25 12C23.25 5.7868 18.2132 0.75 12 0.75C5.7868 0.75 0.75 5.7868 0.75 12C0.75 18.2132 5.7868 23.25 12 23.25Z" stroke="black" stroke-width="1.5" stroke-linecap="round" stroke-linejoin="round"/>
<path d="M8.25 8.625C8.45711 8.625 8.625 8.79289 8.625 9C8.625 9.20711 8.45711 9.375 8.25 9.375C8.04289 9.375 7.875 9.20711 7.875 9C7.875 8.79289 8.04289 8.625 8.25 8.625" stroke="black" stroke-width="1.5" stroke-linecap="round" stroke-linejoin="round"/>
<path d="M15.75 8.625C15.9571 8.625 16.125 8.79289 16.125 9C16.125 9.20711 15.9571 9.375 15.75 9.375C15.5429 9.375 15.375 9.20711 15.375 9C15.375 8.79289 15.5429 8.625 15.75 8.625" stroke="black" stroke-width="1.5" stroke-linecap="round" stroke-linejoin="round"/>
<path d="M18.048 15C16.9086 17.2994 14.5642 18.7542 11.998 18.7542C9.43178 18.7542 7.08738 17.2994 5.948 15" stroke="black" stroke-width="1.5" stroke-linecap="round" stroke-linejoin="round"/>
</svg>
